<?xml version="1.0" encoding="UTF-8"?> <svg width="78px" height="36px" viewBox="0 0 78 36" version="1.1" xmlns="http://www.w3.org/2000/svg" xmlns:xlink="http://www.w3.org/1999/xlink"> <title>rating_mark_100</title> <defs> <linearGradient x1="-2.22044605e-14%" y1="50%" x2="100%" y2="50%" id="linearGradient-1"> <stop stop-color="#BB8239" offset="0%"></stop> <stop stop-color="#CC9B31" offset="100%"></stop> </linearGradient> <path d="M23.922,27.974 L23.922,20.309 C24.342,20.897 24.72,21.464 25.014,21.947 L26.61,19.595 L26.61,22.913 L29.361,22.913 L29.361,21.989 L30.663,21.989 L30.663,27.974 L33.645,27.974 L33.645,21.989 L34.926,21.989 L34.926,22.682 L37.803,22.682 L37.803,10.901 L33.645,10.901 L33.645,8.024 L30.663,8.024 L30.663,10.901 L26.61,10.901 L26.61,19.28 C26.127,18.776 24.93,17.579 24.216,16.928 C25.077,15.563 25.812,14.093 26.358,12.56 L24.867,11.405 L24.384,11.51 L23.166,11.51 L24.615,10.649 C24.258,9.914 23.565,8.822 22.956,8.003 L20.562,9.263 C21.003,9.935 21.507,10.796 21.864,11.51 L18.777,11.51 L18.777,14.24 L22.83,14.24 C21.696,16.235 19.995,18.041 18.168,19.07 C18.504,19.679 19.029,21.38 19.176,22.262 C19.848,21.821 20.499,21.296 21.15,20.666 L21.15,27.974 L23.922,27.974 Z M30.663,15.122 L29.361,15.122 L29.361,13.589 L30.663,13.589 L30.663,15.122 Z M34.926,15.122 L33.645,15.122 L33.645,13.589 L34.926,13.589 L34.926,15.122 Z M34.926,19.301 L33.645,19.301 L33.645,17.768 L34.926,17.768 L34.926,19.301 Z M30.663,19.301 L29.361,19.301 L29.361,17.768 L30.663,17.768 L30.663,19.301 Z M44.901,27.974 L44.901,13.337 C45.657,11.93 46.308,10.481 46.833,9.074 L43.872,8.129 C42.864,11.027 41.121,13.925 39.294,15.752 C39.819,16.529 40.659,18.293 40.932,19.049 C41.226,18.734 41.52,18.419 41.814,18.062 L41.814,27.974 L44.901,27.974 Z M53.847,27.995 L53.847,23.564 L59.244,23.564 L59.244,20.729 L53.847,20.729 L53.847,18.839 L58.971,18.839 L58.971,16.067 L53.847,16.067 L53.847,14.324 L59.538,14.324 L59.538,11.426 L51.705,11.426 C52.062,10.628 52.377,9.809 52.65,8.99 L49.71,8.213 C48.786,11.216 47.148,14.24 45.321,16.088 C45.972,16.571 47.148,17.663 47.631,18.23 C48.555,17.18 49.458,15.836 50.298,14.324 L50.697,14.324 L50.697,27.995 L53.847,27.995 Z" id="path-2"></path> </defs> <g id="Symbols" stroke="none" stroke-width="1" fill="none" fill-rule="evenodd"> <g id="Icon-/-Rating-/-Mark-/-100" fill-rule="nonzero"> <path d="M73.1195838,33.6846733 C74.1430806,33.7742177 75.1329982,34.2475733 76.0893367,35.1047403 C74.9986817,35.7828185 73.9416057,36.0770854 72.918109,35.987541 C71.8946122,35.8979967 70.9046946,35.424641 69.9483561,34.5674741 C71.0390111,33.8893959 72.096087,33.595129 73.1195838,33.6846733 Z M76.5642648,27.9515654 C77.4214318,28.9079039 77.8947874,29.8978215 77.9843318,30.9213183 C78.0738761,31.944815 77.7796092,33.0018909 77.101531,34.092546 C76.2443641,33.1362075 75.7710084,32.1462898 75.681464,31.1227931 C75.5919197,30.0992963 75.8861866,29.0422204 76.5642648,27.9515654 Z M68.6166839,29.5155543 C69.5821301,29.8669479 70.4158036,30.5803839 71.1177045,31.6558622 C69.8887131,32.0285532 68.7914943,32.0392018 67.8260481,31.6878082 C66.8606019,31.3364145 66.0269284,30.6229785 65.3250275,29.5475002 C66.5540189,29.1748093 67.6512377,29.1641606 68.6166839,29.5155543 Z M73.4278278,24.8693463 C74.0082688,26.0149495 74.2092857,27.0936499 74.0308785,28.1054477 C73.8524713,29.1172454 73.2946399,30.0621405 72.3573843,30.9401328 C71.7769432,29.7945296 71.5759263,28.7158291 71.7543336,27.7040314 C71.9327408,26.6922336 72.4905722,25.7473386 73.4278278,24.8693463 Z M62,22.9249422 C63.2713505,23.1065637 64.2702688,23.5606175 64.9967548,24.2871035 C65.7232408,25.0135895 66.1772945,26.0125078 66.358916,27.2838583 C65.0875655,27.1022368 64.0886473,26.648183 63.3621613,25.921697 C62.6356753,25.195211 62.1816215,24.1962927 62,22.9249422 Z M71.3207043,22.1094863 C71.3626097,23.3930604 71.0889144,24.4556484 70.4996183,25.2972504 C69.9103222,26.1388524 69.0054254,26.7594684 67.7849278,27.1590984 C67.7430224,25.8755243 68.0167177,24.8129363 68.6060138,23.9713343 C69.1953098,23.1297322 70.1002067,22.5091162 71.3207043,22.1094863 Z M71.5064254,17.2473949 C71.2146895,18.4980782 70.6753021,19.4536218 69.8882632,20.1140259 C69.1012243,20.77443 68.0665338,21.1396945 66.7841918,21.2098193 C67.0759277,19.9591361 67.6153151,19.0035924 68.402354,18.3431883 C69.1893929,17.6827842 70.2240834,17.3175198 71.5064254,17.2473949 Z M62.2922609,15.6226891 C63.4732841,16.1271717 64.3206473,16.824293 64.8343504,17.714053 C65.3480536,18.603813 65.5280968,19.6862117 65.37448,20.9612491 C64.1934568,20.4567665 63.3460936,19.7596452 62.8323904,18.8698852 C62.3186872,17.9801252 62.1386441,16.8977265 62.2922609,15.6226891 Z M72.4918528,13.3658501 C71.7899519,14.4413284 70.9562784,15.1547644 69.9908322,15.506158 C69.025386,15.8575517 67.9281672,15.8469031 66.6991758,15.4742121 C67.4010767,14.3987338 68.2347503,13.6852978 69.2001964,13.3339041 C70.1656426,12.9825105 71.2628614,12.9931591 72.4918528,13.3658501 Z M64.3890525,8.68769616 C65.3263081,9.56568848 65.8841395,10.5105835 66.0625467,11.5223813 C66.240954,12.534179 66.0399371,13.6128795 65.459496,14.7584826 C64.5222404,13.8804903 63.964409,12.9355953 63.7860018,11.9237975 C63.6075946,10.9119998 63.8086115,9.83329934 64.3890525,8.68769616 Z M75.142491,9.30793153 C74.2644987,10.2451871 73.3196036,10.8030185 72.3078059,10.9814257 C71.2960081,11.159833 70.2173077,10.9588161 69.0717045,10.378375 C69.9496968,9.44111943 70.8945918,8.88328804 71.9063896,8.7048808 C72.9181873,8.52647355 73.9968878,8.72749047 75.142491,9.30793153 Z M67.9751433,3.29381278 C68.7456981,4.32121914 69.1309755,5.3486255 69.1309755,6.37603186 C69.1309755,7.40343821 68.7456981,8.43084457 67.9751433,9.45825093 C67.2045886,8.43084457 66.8193112,7.40343821 66.8193112,6.37603186 C66.8193112,5.3486255 67.2045886,4.32121914 67.9751433,3.29381278 Z M75.8951236,2.57 C75.7135021,3.8413505 75.2594484,4.84026876 74.5329624,5.56675476 C73.8064764,6.29324076 72.8075581,6.74729451 71.5362076,6.92891602 C71.7178291,5.65756551 72.1718829,4.65864726 72.8983689,3.93216125 C73.6248549,3.20567525 74.6237731,2.7516215 75.8951236,2.57 Z" id="形状结合" fill="#CC9B31" transform="translate(70.000000, 19.286605) scale(-1, 1) translate(-70.000000, -19.286605) "></path> <g id="神作"> <use fill="#212832" xlink:href="#path-2"></use> <use fill="url(#linearGradient-1)" xlink:href="#path-2"></use> </g> <path d="M11.1195838,33.6846733 C12.1430806,33.7742177 13.1329982,34.2475733 14.0893367,35.1047403 C12.9986817,35.7828185 11.9416057,36.0770854 10.918109,35.987541 C9.89461222,35.8979967 8.90469459,35.424641 7.94835609,34.5674741 C9.03901113,33.8893959 10.096087,33.595129 11.1195838,33.6846733 Z M14.5642648,27.9515654 C15.4214318,28.9079039 15.8947874,29.8978215 15.9843318,30.9213183 C16.0738761,31.944815 15.7796092,33.0018909 15.101531,34.092546 C14.2443641,33.1362075 13.7710084,32.1462898 13.681464,31.1227931 C13.5919197,30.0992963 13.8861866,29.0422204 14.5642648,27.9515654 Z M6.61668388,29.5155543 C7.58213005,29.8669479 8.4158036,30.5803839 9.11770452,31.6558622 C7.88871309,32.0285532 6.7914943,32.0392018 5.82604812,31.6878082 C4.86060195,31.3364145 4.0269284,30.6229785 3.32502748,29.5475002 C4.55401891,29.1748093 5.65123771,29.1641606 6.61668388,29.5155543 Z M11.4278278,24.8693463 C12.0082688,26.0149495 12.2092857,27.0936499 12.0308785,28.1054477 C11.8524713,29.1172454 11.2946399,30.0621405 10.3573843,30.9401328 C9.77694324,29.7945296 9.57592632,28.7158291 9.75433357,27.7040314 C9.93274081,26.6922336 10.4905722,25.7473386 11.4278278,24.8693463 Z M-1.89607831e-11,22.9249422 C1.2713505,23.1065637 2.27026876,23.5606175 2.99675476,24.2871035 C3.72324076,25.0135895 4.17729451,26.0125078 4.35891602,27.2838583 C3.08756551,27.1022368 2.08864726,26.648183 1.36216125,25.921697 C0.635675252,25.195211 0.181621501,24.1962927 -1.89607831e-11,22.9249422 Z M9.32070426,22.1094863 C9.3626097,23.3930604 9.08891438,24.4556484 8.4996183,25.2972504 C7.91032222,26.1388524 7.00542539,26.7594684 5.7849278,27.1590984 C5.74302236,25.8755243 6.01671768,24.8129363 6.60601376,23.9713343 C7.19530984,23.1297322 8.10020667,22.5091162 9.32070426,22.1094863 Z M9.5064254,17.2473949 C9.21468952,18.4980782 8.67530212,19.4536218 7.88826319,20.1140259 C7.10122426,20.77443 6.0665338,21.1396945 4.78419181,21.2098193 C5.07592768,19.9591361 5.61531509,19.0035924 6.40235402,18.3431883 C7.18939295,17.6827842 8.22408341,17.3175198 9.5064254,17.2473949 Z M0.292260898,15.6226891 C1.47328408,16.1271717 2.32064726,16.824293 2.83435044,17.714053 C3.34805362,18.603813 3.5280968,19.6862117 3.37447997,20.9612491 C2.19345679,20.4567665 1.34609361,19.7596452 0.832390428,18.8698852 C0.318687249,17.9801252 0.138644073,16.8977265 0.292260898,15.6226891 Z M10.4918528,13.3658501 C9.7899519,14.4413284 8.95627835,15.1547644 7.99083218,15.506158 C7.02538601,15.8575517 5.92816721,15.8469031 4.69917578,15.4742121 C5.4010767,14.3987338 6.23475025,13.6852978 7.20019642,13.3339041 C8.1656426,12.9825105 9.2628614,12.9931591 10.4918528,13.3658501 Z M2.38905255,8.68769616 C3.3263081,9.56568848 3.8841395,10.5105835 4.06254674,11.5223813 C4.24095398,12.534179 4.03993707,13.6128795 3.459496,14.7584826 C2.52224045,13.8804903 1.96440905,12.9355953 1.78600181,11.9237975 C1.60759457,10.9119998 1.80861148,9.83329934 2.38905255,8.68769616 Z M13.142491,9.30793153 C12.2644987,10.2451871 11.3196036,10.8030185 10.3078059,10.9814257 C9.29600813,11.159833 8.21730766,10.9588161 7.07170449,10.378375 C7.9496968,9.44111943 8.89459183,8.88328804 9.90638958,8.7048808 C10.9181873,8.52647355 11.9968878,8.72749047 13.142491,9.30793153 Z M5.97514334,3.29381278 C6.74569811,4.32121914 7.13097549,5.3486255 7.13097549,6.37603186 C7.13097549,7.40343821 6.74569811,8.43084457 5.97514334,9.45825093 C5.20458857,8.43084457 4.81931119,7.40343821 4.81931119,6.37603186 C4.81931119,5.3486255 5.20458857,4.32121914 5.97514334,3.29381278 Z M13.8951236,2.57 C13.7135021,3.8413505 13.2594484,4.84026876 12.5329624,5.56675476 C11.8064764,6.29324076 10.8075581,6.74729451 9.53620761,6.92891602 C9.71782911,5.65756551 10.1718829,4.65864726 10.8983689,3.93216125 C11.6248549,3.20567525 12.6237731,2.7516215 13.8951236,2.57 Z" id="形状结合" fill="#BB8239"></path> </g> </g> </svg>
